<svg width="551" height="551" viewBox="0 0 551 551" fill="none" xmlns="http://www.w3.org/2000/svg">
<rect x="1" y="1" width="550" height="550" fill="#CC6600"/>
<line x1="550.5" y1="551" x2="550.5" y2="1" stroke="black"/>
<line x1="500.5" y1="551" x2="500.5" y2="1" stroke="black"/>
<line x1="450.5" y1="551" x2="450.5" y2="1" stroke="black"/>
<line x1="400.5" y1="551" x2="400.5" y2="1" stroke="black"/>
<line x1="350.5" y1="551" x2="350.5" y2="1" stroke="black"/>
<line x1="300.5" y1="551" x2="300.5" y2="1" stroke="black"/>
<line x1="250.5" y1="551" x2="250.5" y2="1" stroke="black"/>
<line x1="200.5" y1="551" x2="200.5" y2="1" stroke="black"/>
<line x1="150.5" y1="551" x2="150.5" y2="1" stroke="black"/>
<line x1="100.5" y1="551" x2="100.5" y2="1" stroke="black"/>
<line x1="50.5" y1="551" x2="50.5" y2="1" stroke="black"/>
<line x1="0.5" y1="551" x2="0.5" stroke="black"/>
<line x1="1" y1="550.5" x2="551" y2="550.5" stroke="black"/>
<line x1="1" y1="500.5" x2="551" y2="500.5" stroke="black"/>
<line x1="1" y1="450.5" x2="551" y2="450.5" stroke="black"/>
<line x1="1" y1="400.5" x2="551" y2="400.5" stroke="black"/>
<line x1="1" y1="350.5" x2="551" y2="350.5" stroke="black"/>
<line x1="1" y1="300.5" x2="551" y2="300.5" stroke="black"/>
<line x1="1" y1="250.5" x2="551" y2="250.5" stroke="black"/>
<line x1="1" y1="200.5" x2="551" y2="200.5" stroke="black"/>
<line x1="1" y1="150.5" x2="551" y2="150.5" stroke="black"/>
<line x1="1" y1="100.5" x2="551" y2="100.5" stroke="black"/>
<line x1="1" y1="50.5" x2="551" y2="50.5" stroke="black"/>
<line x1="1" y1="0.5" x2="551" y2="0.5" stroke="black"/>
<line y1="-0.5" x2="70.0071" y2="-0.5" transform="matrix(0.699929 0.714213 -0.699929 0.714213 501 501)" stroke="black"/>
<line y1="-0.5" x2="70.0071" y2="-0.5" transform="matrix(0.699929 -0.714213 0.699929 0.714213 501 551)" stroke="black"/>
<line y1="-0.5" x2="70.0071" y2="-0.5" transform="matrix(0.699929 0.714213 -0.699929 0.714213 1 501)" stroke="black"/>
<line y1="-0.5" x2="70.0071" y2="-0.5" transform="matrix(0.699929 -0.714213 0.699929 0.714213 1 551)" stroke="black"/>
<line x1="251.354" y1="250.646" x2="301.354" y2="300.646" stroke="black"/>
<line x1="250.646" y1="300.646" x2="300.646" y2="250.646" stroke="black"/>
<line y1="-0.5" x2="70.0071" y2="-0.5" transform="matrix(0.699929 0.714213 -0.699929 0.714213 501 1)" stroke="black"/>
<line y1="-0.5" x2="70.0071" y2="-0.5" transform="matrix(0.699929 -0.714213 0.699929 0.714213 501 51)" stroke="black"/>
<line y1="-0.5" x2="70.0071" y2="-0.5" transform="matrix(0.699929 0.714213 -0.699929 0.714213 1 1)" stroke="black"/>
<line y1="-0.5" x2="70.0071" y2="-0.5" transform="matrix(0.699929 -0.714213 0.699929 0.714213 1 51)" stroke="black"/>
</svg>
