<svg width="120" height="119" viewBox="0 0 120 119" fill="none" xmlns="http://www.w3.org/2000/svg">
<path fill-rule="evenodd" clip-rule="evenodd" d="M54 0C51.7908 0 50 1.79089 50 4V11.0001C43.7383 12.2711 37.9015 14.7124 32.7278 18.0856L27.8267 13.1844C26.2645 11.6223 23.7319 11.6223 22.1698 13.1844L13.6845 21.6698C12.1224 23.2318 12.1224 25.7645 13.6845 27.3265L18.4841 32.1262C14.9963 37.3108 12.454 43.1844 11.1044 49.5H4.5C2.29083 49.5 0.5 51.2909 0.5 53.5V65.5C0.5 67.7091 2.29083 69.5 4.5 69.5H10.9014C12.1422 75.951 14.6229 81.9611 18.0857 87.2722L13.6845 91.6733C12.1224 93.2355 12.1224 95.7681 13.6845 97.3302L22.1698 105.816C23.7319 107.378 26.2645 107.378 27.8266 105.816L32.1263 101.516C37.4474 105.096 43.4944 107.679 50 109V115C50 117.209 51.7908 119 54 119H66C68.2092 119 70 117.209 70 115V109C76.5056 107.679 82.5526 105.096 87.8738 101.516L92.1733 105.815C93.7355 107.378 96.2681 107.378 97.8302 105.815L106.315 97.3302C107.878 95.7681 107.878 93.2354 106.315 91.6733L101.914 87.2722C105.377 81.9611 107.858 75.951 109.099 69.5H115.5C117.709 69.5 119.5 67.7091 119.5 65.5V53.5C119.5 51.2909 117.709 49.5 115.5 49.5H108.896C107.546 43.1844 105.004 37.3108 101.516 32.1262L106.315 27.3267C107.878 25.7645 107.878 23.2319 106.315 21.6698L97.8302 13.1844C96.2681 11.6224 93.7354 11.6224 92.1733 13.1844L87.2722 18.0856C82.0985 14.7124 76.2617 12.2711 70 11.0001V4C70 1.79089 68.2092 0 66 0H54ZM60 80C71.0457 80 80 71.0457 80 60C80 48.9543 71.0457 40 60 40C48.9543 40 40 48.9543 40 60C40 71.0457 48.9543 80 60 80Z" fill="#D9D9D9"/>
</svg>
